<?xml version="1.0" standalone="no"?>
<!DOCTYPE svg PUBLIC "-//W3C//DTD SVG 20010904//EN"
 "http://www.w3.org/TR/2001/REC-SVG-20010904/DTD/svg10.dtd">
<svg version="1.0" xmlns="http://www.w3.org/2000/svg"
 width="1024.000000pt" height="1024.000000pt" viewBox="0 0 1024.000000 1024.000000"
 preserveAspectRatio="xMidYMid meet">

<g transform="translate(0.000000,1024.000000) scale(0.100000,-0.100000)"
fill="#000000" stroke="none">
<path d="M0 5120 l0 -5120 5120 0 5120 0 0 5120 0 5120 -5120 0 -5120 0 0
-5120z m5225 2405 c82 -127 89 -139 100 -157 67 -113 298 -489 356 -578 12
-19 42 -69 66 -110 24 -41 64 -106 88 -145 48 -77 102 -167 122 -203 6 -12 19
-29 28 -38 8 -8 15 -20 15 -27 0 -14 -31 21 -49 55 -8 15 -19 25 -24 21 -6 -3
-7 -2 -4 3 9 15 -9 37 -33 41 -12 2 -19 -1 -15 -6 3 -5 0 -13 -6 -17 -8 -4 -9
-3 -5 4 4 7 2 12 -4 12 -6 0 -8 4 -5 10 3 5 0 7 -9 4 -8 -3 -12 -12 -10 -19 8
-21 -12 -27 -27 -8 -10 12 -10 14 -1 9 7 -4 12 -2 12 5 0 6 -8 9 -20 6 -11 -3
-20 0 -20 5 0 7 -5 6 -14 -1 -10 -9 -16 -9 -21 -1 -5 8 -12 7 -23 -2 -10 -7
-14 -9 -10 -4 8 10 -24 44 -36 38 -5 -3 -24 -7 -41 -9 -26 -3 -34 1 -38 18 -4
14 -10 18 -18 13 -9 -5 -10 -2 -5 12 6 15 5 17 -5 7 -7 -7 -20 -13 -28 -12
-11 0 -12 2 -3 6 6 2 12 9 12 14 0 5 -9 4 -19 -3 -11 -7 -18 -15 -15 -19 8
-13 -26 -33 -37 -22 -8 8 -7 13 2 18 8 5 10 4 5 -3 -7 -12 6 -17 17 -6 9 10
-4 33 -16 28 -7 -2 -25 0 -42 5 -16 5 -23 10 -14 10 8 1 23 7 34 14 17 13 16
14 -6 13 -13 -1 -27 -5 -31 -11 -4 -6 -8 -2 -8 8 0 9 -5 17 -11 17 -5 0 -7 -4
-4 -10 7 -12 -15 -13 -31 -2 -6 4 -13 13 -15 19 -3 10 -10 10 -31 -1 -34 -18
-46 -7 -17 15 l21 16 -23 -1 c-17 -1 -24 4 -23 16 1 14 -2 16 -17 7 -14 -7
-19 -6 -19 2 0 7 -3 9 -6 6 -9 -9 16 -38 26 -32 15 9 18 -10 4 -23 -8 -7 -14
-8 -14 -2 0 5 -7 10 -16 10 -8 0 -12 5 -9 10 3 6 1 10 -4 10 -6 0 -11 -4 -11
-10 0 -5 -4 -10 -10 -10 -5 0 -10 7 -10 15 0 8 7 15 16 15 8 0 12 5 9 10 -4 6
-10 8 -15 5 -5 -3 -11 12 -13 32 -3 31 -7 -149 -9 -476 -1 -28 -4 -38 -9 -29
-4 8 -9 353 -11 766 -2 414 -1 746 1 740 2 -7 27 -49 56 -93z m831 -1355 c9
-19 20 -37 23 -40 6 -4 51 -76 120 -192 43 -71 13 -38 -35 40 -27 42 -62 98
-79 124 -43 66 -68 110 -77 133 -13 32 28 -23 48 -65z m-837 -114 c-3 -3 -11
5 -18 17 -13 21 -12 21 5 5 10 -10 16 -20 13 -22z m40 -61 l23 -40 -25 30
c-15 17 -26 36 -27 44 0 17 0 17 29 -34z m979 -130 c-3 -3 -9 2 -12 12 -6 14
-5 15 5 6 7 -7 10 -15 7 -18z m30 -36 c19 -30 11 -32 -11 -3 -10 13 -14 24
-10 24 5 0 14 -9 21 -21z"/>
<path d="M5375 6540 c-3 -5 -1 -10 4 -10 6 0 11 5 11 10 0 6 -2 10 -4 10 -3 0
-8 -4 -11 -10z"/>
<path d="M5557 6489 c7 -7 15 -10 18 -7 3 3 -2 9 -12 12 -14 6 -15 5 -6 -5z"/>
<path d="M5643 6440 c1 -11 5 -20 9 -20 11 0 10 28 -1 35 -6 3 -9 -4 -8 -15z"/>
<path d="M5865 6421 c-3 -6 4 -15 15 -21 13 -7 20 -7 20 0 0 5 -7 10 -16 10
-8 0 -12 5 -9 10 3 6 4 10 1 10 -3 0 -7 -4 -11 -9z"/>
</g>
</svg>
